<?xml version="1.0" standalone="no"?>
<!DOCTYPE svg PUBLIC "-//W3C//DTD SVG 20010904//EN"
 "http://www.w3.org/TR/2001/REC-SVG-20010904/DTD/svg10.dtd">
<svg version="1.0" xmlns="http://www.w3.org/2000/svg"
 width="903.000000pt" height="594.000000pt" viewBox="0 0 903.000000 594.000000"
 preserveAspectRatio="xMidYMid meet">

<g transform="translate(0.000000,594.000000) scale(0.100000,-0.100000)"
fill="#000000" stroke="none">
<path d="M25 5855 l-25 -24 0 -2896 0 -2895 33 -20 c32 -20 66 -20 4448 -20
3000 0 4425 3 4446 10 16 6 37 23 46 39 16 27 17 221 17 2901 0 1896 -3 2869
-10 2865 -5 -3 -8 0 -5 7 6 16 -3 29 -32 46 -18 9 -928 12 -4458 12 l-4436 0
-24 -25z m8932 -2909 c2 -2283 0 -2876 -10 -2889 -11 -16 -288 -17 -4457 -17
-2444 0 -4448 4 -4452 8 -13 13 -10 5774 2 5786 8 8 1349 13 4443 16 4264 5
4433 4 4452 -13 20 -18 20 -32 22 -2891z"/>
<path d="M1850 5405 l0 -75 48 0 c65 0 88 25 83 93 -2 33 -38 57 -86 57 l-45
0 0 -75z m106 30 c31 -47 -3 -95 -67 -95 -17 0 -19 7 -19 60 l0 60 35 0 c26 0
39 -6 51 -25z"/>
<path d="M5632 5459 c-39 -103 -54 -150 -50 -154 3 -3 19 34 36 82 18 48 30
89 27 91 -2 3 -8 -6 -13 -19z"/>
<path d="M2145 5453 c-4 -13 -12 -23 -18 -23 -7 0 -7 -4 1 -12 7 -7 12 -27 12
-45 0 -36 26 -58 57 -46 16 6 15 8 -7 13 -20 5 -26 13 -28 43 -3 29 0 36 11
31 8 -3 18 -1 22 5 3 7 -2 11 -14 11 -12 0 -21 8 -24 23 l-4 22 -8 -22z"/>
<path d="M5202 5459 c-36 -14 -25 -50 23 -75 22 -11 41 -27 43 -36 4 -20 -33
-30 -65 -17 -19 7 -24 6 -21 -3 6 -17 76 -22 94 -7 26 22 12 53 -34 73 -54 25
-54 52 1 50 41 -1 50 10 15 20 -28 7 -27 7 -56 -5z"/>
<path d="M7065 5462 c-22 -16 -31 -49 -27 -99 5 -65 22 -70 22 -8 0 38 3 45
20 45 11 0 20 5 20 10 0 6 -9 10 -21 10 -28 0 -19 23 12 30 21 5 22 7 6 13
-22 8 -20 8 -32 -1z"/>
<path d="M7120 5390 c0 -47 4 -80 10 -80 6 0 10 33 10 80 0 47 -4 80 -10 80
-6 0 -10 -33 -10 -80z"/>
<path d="M3163 5453 c26 -4 27 -6 27 -74 0 -39 4 -69 10 -69 6 0 10 30 10 69
0 68 1 70 28 74 15 2 -2 4 -38 4 -36 0 -53 -2 -37 -4z"/>
<path d="M5680 5385 l0 -75 50 0 c28 0 50 5 50 10 0 6 -18 10 -40 10 l-40 0 0
65 c0 37 -4 65 -10 65 -6 0 -10 -32 -10 -75z"/>
<path d="M6260 5450 c0 -5 5 -10 10 -10 6 0 10 5 10 10 0 6 -4 10 -10 10 -5 0
-10 -4 -10 -10z"/>
<path d="M5368 5433 c-2 -26 2 -74 7 -100 4 -18 12 -23 38 -22 30 1 30 2 7 8
-20 5 -26 14 -28 44 -3 32 0 37 17 37 12 0 21 5 21 10 0 6 -9 10 -20 10 -11 0
-20 7 -20 15 0 21 -20 19 -22 -2z"/>
<path d="M6181 5438 c0 -9 -7 -19 -13 -21 -10 -4 -10 -8 -1 -14 6 -4 13 -26
15 -48 3 -35 6 -40 31 -43 15 -2 27 2 27 8 0 6 -5 8 -10 5 -18 -11 -40 15 -40
46 0 24 4 29 26 29 14 0 23 4 19 10 -3 6 -15 10 -25 10 -10 0 -21 8 -23 18 -4
15 -5 15 -6 0z"/>
<path d="M8117 5435 c-24 -23 -9 -52 35 -70 28 -11 38 -20 36 -33 -3 -13 -13
-17 -46 -16 -52 1 -55 -13 -5 -22 44 -8 67 4 71 40 3 23 -3 29 -43 46 -54 23
-55 44 -2 48 21 2 35 7 32 13 -9 14 -62 11 -78 -6z"/>
<path d="M2010 5421 c0 -5 14 -8 31 -7 18 0 34 -5 36 -11 3 -8 -4 -13 -15 -13
-35 0 -52 -11 -52 -35 0 -26 17 -33 68 -30 30 2 60 15 34 15 -7 0 -12 13 -12
29 0 50 -9 61 -51 61 -21 0 -39 -4 -39 -9z m70 -61 c0 -6 -7 -13 -15 -16 -20
-8 -48 3 -40 16 8 13 55 13 55 0z"/>
<path d="M2231 5416 c-7 -8 -11 -27 -9 -43 4 -34 47 -58 81 -46 19 6 17 8 -17
13 -55 7 -60 30 -7 30 33 0 41 4 41 18 0 10 -5 23 -12 30 -17 17 -63 15 -77
-2z m69 -11 c11 -13 7 -15 -25 -15 -32 0 -36 2 -25 15 7 8 18 15 25 15 7 0 18
-7 25 -15z"/>
<path d="M8490 5416 c0 -8 -6 -17 -12 -20 -10 -5 -10 -7 0 -12 6 -3 12 -23 12
-44 0 -25 5 -40 16 -44 24 -9 44 -7 44 4 0 6 -9 10 -20 10 -16 0 -20 7 -20 35
0 28 4 35 20 35 11 0 20 5 20 10 0 6 -9 10 -20 10 -11 0 -20 7 -20 15 0 8 -4
15 -10 15 -5 0 -10 -6 -10 -14z"/>
<path d="M3293 5365 c0 -33 2 -45 4 -27 2 18 2 45 0 60 -2 15 -4 0 -4 -33z"/>
<path d="M3340 5363 c0 -63 18 -71 22 -10 2 34 7 42 23 42 16 0 21 -8 23 -42
2 -24 7 -43 12 -43 5 0 10 19 12 43 2 35 7 43 25 45 23 3 26 -3 36 -68 3 -14
5 -2 6 27 1 43 -2 53 -19 58 -10 3 -28 1 -39 -4 -13 -7 -22 -8 -26 -1 -3 5
-22 9 -41 7 l-34 -2 0 -52z"/>
<path d="M3552 5404 c-24 -16 -28 -44 -12 -75 8 -14 21 -19 50 -19 22 0 40 5
40 11 0 6 -8 8 -20 4 -21 -7 -63 11 -56 24 3 5 21 7 41 5 31 -2 35 0 35 21 0
14 -9 29 -19 35 -26 13 -33 13 -59 -6z m62 -19 c4 -12 -3 -15 -29 -15 -33 0
-43 8 -28 23 12 13 51 7 57 -8z"/>
<path d="M5323 5365 c0 -33 2 -45 4 -27 2 18 2 45 0 60 -2 15 -4 0 -4 -33z"/>
<path d="M5470 5400 c-40 -40 -15 -90 46 -90 19 0 34 5 34 11 0 6 -8 8 -20 4
-21 -7 -66 12 -55 23 4 4 21 7 38 7 37 0 50 31 21 52 -25 18 -41 16 -64 -7z
m68 -17 c2 -9 -8 -13 -32 -13 -34 0 -44 8 -29 24 11 11 56 2 61 -11z"/>
<path d="M5822 5404 c-45 -31 -21 -94 37 -94 46 0 68 62 33 93 -23 21 -41 21
-70 1z m63 -38 c0 -36 -26 -56 -49 -37 -16 14 -22 52 -9 65 4 4 19 6 33 4 20
-2 25 -8 25 -32z"/>
<path d="M5950 5400 c-24 -24 -26 -53 -4 -74 16 -17 74 -22 74 -7 0 5 -8 7
-17 5 -30 -8 -57 19 -49 49 5 22 12 27 37 27 18 0 28 4 24 10 -10 16 -44 11
-65 -10z"/>
<path d="M6055 5411 c-3 -5 9 -11 27 -13 42 -4 48 -25 7 -26 -37 -1 -52 -13
-47 -38 3 -15 13 -19 57 -21 40 -1 51 1 42 10 -6 6 -11 25 -11 42 0 17 -5 36
-12 43 -14 14 -54 16 -63 3z m58 -66 c-1 -5 -8 -14 -17 -20 -18 -11 -42 7 -31
25 8 13 51 9 48 -5z"/>
<path d="M6260 5365 c0 -30 5 -55 10 -55 6 0 10 25 10 55 0 30 -4 55 -10 55
-5 0 -10 -25 -10 -55z"/>
<path d="M6326 5404 c-19 -18 -21 -65 -4 -82 17 -17 64 -15 82 4 23 22 20 60
-6 78 -29 20 -52 20 -72 0z m70 -31 c8 -30 -15 -54 -46 -46 -42 11 -29 73 15
73 18 0 26 -7 31 -27z"/>
<path d="M6452 5360 c1 -40 2 -46 5 -20 5 42 19 60 44 60 18 0 23 -11 32 -70
3 -14 5 -4 6 22 1 53 -8 63 -56 63 l-33 0 2 -55z"/>
<path d="M7186 5404 c-19 -18 -21 -65 -4 -82 17 -17 64 -15 82 4 23 22 20 60
-6 78 -29 20 -52 20 -72 0z m62 -16 c18 -18 14 -46 -7 -58 -23 -12 -47 -5 -55
16 -15 38 34 70 62 42z"/>
<path d="M7322 5404 c-41 -29 -19 -94 33 -94 50 0 73 60 37 93 -23 21 -41 21
-70 1z m66 -33 c5 -32 -23 -54 -49 -40 -19 10 -26 49 -12 63 4 4 19 6 33 4 18
-2 26 -10 28 -27z"/>
<path d="M7440 5368 c0 -32 4 -58 10 -58 6 0 10 18 10 41 0 32 4 42 20 46 11
3 20 9 20 14 0 11 -11 11 -30 -1 -9 -6 -17 -5 -22 3 -4 7 -8 -14 -8 -45z"/>
<path d="M8245 5380 c-37 -41 20 -108 71 -85 15 7 11 10 -20 14 -55 8 -60 31
-7 31 47 0 56 9 35 38 -19 28 -55 28 -79 2z m75 -20 c0 -6 -16 -10 -35 -10
-38 0 -46 13 -18 29 19 10 53 -2 53 -19z"/>
<path d="M8360 5389 c0 -6 9 -9 20 -6 10 3 27 -1 37 -9 17 -12 16 -13 -9 -14
-25 0 -58 -22 -58 -39 0 -18 27 -29 66 -28 l42 2 -5 35 c-9 57 -20 70 -58 70
-19 0 -35 -5 -35 -11z m68 -61 c-7 -20 -58 -23 -58 -4 0 11 10 16 31 16 20 0
29 -4 27 -12z"/>
<path d="M3552 3493 l926 -3 -5 -23 c-3 -12 -9 -26 -13 -32 -4 -5 -8 -115 -8
-242 l0 -233 289 0 289 0 0 265 0 265 328 3 c180 1 -361 2 -1203 2 -841 0
-1113 -1 -603 -2z"/>
<path d="M5713 3493 c9 -2 25 -2 35 0 9 3 1 5 -18 5 -19 0 -27 -2 -17 -5z"/>
<path d="M645 3387 c-3 -6 -4 -181 -2 -387 l2 -375 3 382 2 383 1023 3 1022 2
-1023 3 c-812 1 -1024 -1 -1027 -11z"/>
<path d="M6248 3393 c294 -2 771 -2 1060 0 290 1 50 2 -533 2 -583 0 -820 -1
-527 -2z"/>
<path d="M3671 3314 c0 -11 3 -14 6 -6 3 7 2 16 -1 19 -3 4 -6 -2 -5 -13z"/>
<path d="M7322 3265 c0 -16 2 -22 5 -12 2 9 2 23 0 30 -3 6 -5 -1 -5 -18z"/>
<path d="M7950 3246 c0 -2 8 -10 18 -17 15 -13 16 -12 3 4 -13 16 -21 21 -21
13z"/>
<path d="M8000 3186 c0 -2 8 -10 18 -17 15 -13 16 -12 3 4 -13 16 -21 21 -21
13z"/>
<path d="M8055 3120 c10 -11 20 -20 23 -20 3 0 -3 9 -13 20 -10 11 -20 20 -23
20 -3 0 3 -9 13 -20z"/>
<path d="M8100 3066 c0 -2 8 -10 18 -17 15 -13 16 -12 3 4 -13 16 -21 21 -21
13z"/>
<path d="M8155 3000 c10 -11 20 -20 23 -20 3 0 -3 9 -13 20 -10 11 -20 20 -23
20 -3 0 3 -9 13 -20z"/>
<path d="M8200 2945 c13 -14 26 -25 28 -25 3 0 -5 11 -18 25 -13 14 -26 25
-28 25 -3 0 5 -11 18 -25z"/>
<path d="M8240 2896 c0 -2 8 -10 18 -17 15 -13 16 -12 3 4 -13 16 -21 21 -21
13z"/>
<path d="M8320 2796 c0 -2 8 -10 18 -17 15 -13 16 -12 3 4 -13 16 -21 21 -21
13z"/>
<path d="M708 2733 c7 -3 16 -2 19 1 4 3 -2 6 -13 5 -11 0 -14 -3 -6 -6z"/>
<path d="M5055 2670 c-3 -5 -1 -10 4 -10 6 0 11 5 11 10 0 6 -2 10 -4 10 -3 0
-8 -4 -11 -10z"/>
<path d="M6888 2673 c7 -3 16 -2 19 1 4 3 -2 6 -13 5 -11 0 -14 -3 -6 -6z"/>
<path d="M2464 2320 c0 -58 1 -81 3 -52 2 28 2 76 0 105 -2 28 -3 5 -3 -53z"/>
<path d="M3348 2093 c18 -2 45 -2 60 0 15 2 0 4 -33 4 -33 0 -45 -2 -27 -4z"/>
<path d="M5448 2083 c7 -3 16 -2 19 1 4 3 -2 6 -13 5 -11 0 -14 -3 -6 -6z"/>
<path d="M6888 1813 c6 -2 18 -2 25 0 6 3 1 5 -13 5 -14 0 -19 -2 -12 -5z"/>
<path d="M8570 1686 c0 -2 8 -10 18 -17 15 -13 16 -12 3 4 -13 16 -21 21 -21
13z"/>
<path d="M8650 1590 c23 -27 44 -50 47 -50 3 0 -14 23 -37 50 -23 28 -44 50
-47 50 -3 0 14 -22 37 -50z"/>
<path d="M6648 1593 c7 -3 16 -2 19 1 4 3 -2 6 -13 5 -11 0 -14 -3 -6 -6z"/>
<path d="M8731 1494 c13 -17 26 -30 28 -27 3 2 -8 16 -24 31 l-28 27 24 -31z"/>
<path d="M642 1455 c0 -16 2 -22 5 -12 2 9 2 23 0 30 -3 6 -5 -1 -5 -18z"/>
<path d="M8773 1445 c4 -5 -5 -21 -20 -37 -15 -15 -24 -28 -22 -28 3 0 18 13
33 29 21 22 25 31 14 37 -7 4 -10 3 -5 -1z"/>
<path d="M652 1390 c0 -19 2 -27 5 -17 2 9 2 25 0 35 -3 9 -5 1 -5 -18z"/>
<path d="M8634 1308 l-19 -23 23 19 c12 11 22 21 22 23 0 8 -8 2 -26 -19z"/>
<path d="M8574 1258 l-19 -23 23 19 c21 18 27 26 19 26 -2 0 -12 -10 -23 -22z"/>
<path d="M2798 1243 c7 -3 16 -2 19 1 4 3 -2 6 -13 5 -11 0 -14 -3 -6 -6z"/>
<path d="M8530 1225 c-11 -13 -51 -15 -286 -13 -151 2 -274 0 -274 -4 0 -5
123 -8 273 -8 261 0 275 1 292 20 10 11 16 20 13 20 -3 0 -11 -7 -18 -15z"/>
<path d="M670 1208 c0 -5 69 -7 153 -6 154 2 136 6 -51 10 -56 2 -102 0 -102
-4z"/>
<path d="M2732 1138 l1 -43 4 37 4 37 77 4 77 3 -82 2 -83 2 2 -42z"/>
<path d="M6423 1083 c9 -2 25 -2 35 0 9 3 1 5 -18 5 -19 0 -27 -2 -17 -5z"/>
<path d="M6748 1083 c6 -2 18 -2 25 0 6 3 1 5 -13 5 -14 0 -19 -2 -12 -5z"/>
<path d="M4872 745 c0 -16 2 -22 5 -12 2 9 2 23 0 30 -3 6 -5 -1 -5 -18z"/>
</g>
</svg>
